<svg xmlns="http://www.w3.org/2000/svg" xmlns:xlink="http://www.w3.org/1999/xlink" zoomAndPan="magnify" viewBox="0 0 576 576" preserveAspectRatio="xMidYMid meet" version="1.0"><defs><clipPath id="a5fb39436e"><path d="M 80.535156 76.496094 L 503.546875 76.496094 L 503.546875 499.503906 L 80.535156 499.503906 Z M 80.535156 76.496094 " clip-rule="nonzero"/></clipPath><clipPath id="2e57258d89"><path d="M 292.039062 76.496094 C 175.230469 76.496094 80.535156 171.1875 80.535156 288 C 80.535156 404.8125 175.230469 499.503906 292.039062 499.503906 C 408.851562 499.503906 503.546875 404.8125 503.546875 288 C 503.546875 171.1875 408.851562 76.496094 292.039062 76.496094 Z M 292.039062 76.496094 " clip-rule="nonzero"/></clipPath><clipPath id="7a38bc7c22"><path d="M 0.535156 0.496094 L 423.546875 0.496094 L 423.546875 423.503906 L 0.535156 423.503906 Z M 0.535156 0.496094 " clip-rule="nonzero"/></clipPath><clipPath id="647287c4d2"><path d="M 212.039062 0.496094 C 95.230469 0.496094 0.535156 95.1875 0.535156 212 C 0.535156 328.8125 95.230469 423.503906 212.039062 423.503906 C 328.851562 423.503906 423.546875 328.8125 423.546875 212 C 423.546875 95.1875 328.851562 0.496094 212.039062 0.496094 Z M 212.039062 0.496094 " clip-rule="nonzero"/></clipPath><clipPath id="45da86c175"><rect x="0" width="424" y="0" height="424"/></clipPath><clipPath id="c990e9ec80"><path d="M 93.421875 89.722656 L 491 89.722656 L 491 486.277344 L 93.421875 486.277344 Z M 93.421875 89.722656 " clip-rule="nonzero"/></clipPath><clipPath id="a305b6a37b"><path d="M 292.039062 89.722656 C 182.34375 89.722656 93.421875 178.496094 93.421875 288 C 93.421875 397.503906 182.34375 486.277344 292.039062 486.277344 C 401.734375 486.277344 490.660156 397.503906 490.660156 288 C 490.660156 178.496094 401.734375 89.722656 292.039062 89.722656 Z M 292.039062 89.722656 " clip-rule="nonzero"/></clipPath><clipPath id="d6fbcfee9b"><path d="M 0.421875 0.722656 L 397 0.722656 L 397 397.277344 L 0.421875 397.277344 Z M 0.421875 0.722656 " clip-rule="nonzero"/></clipPath><clipPath id="fa0840d0b2"><path d="M 199.039062 0.722656 C 89.34375 0.722656 0.421875 89.496094 0.421875 199 C 0.421875 308.503906 89.34375 397.277344 199.039062 397.277344 C 308.734375 397.277344 397.660156 308.503906 397.660156 199 C 397.660156 89.496094 308.734375 0.722656 199.039062 0.722656 Z M 199.039062 0.722656 " clip-rule="nonzero"/></clipPath><clipPath id="2015873077"><rect x="0" width="398" y="0" height="398"/></clipPath></defs><g clip-path="url(#a5fb39436e)"><g clip-path="url(#2e57258d89)"><g transform="matrix(1, 0, 0, 1, 80, 76)"><g clip-path="url(#45da86c175)"><g clip-path="url(#7a38bc7c22)"><g clip-path="url(#647287c4d2)"><path fill="#000000" d="M 0.535156 0.496094 L 423.546875 0.496094 L 423.546875 423.503906 L 0.535156 423.503906 Z M 0.535156 0.496094 " fill-opacity="1" fill-rule="nonzero"/></g></g></g></g></g></g><g clip-path="url(#c990e9ec80)"><g clip-path="url(#a305b6a37b)"><g transform="matrix(1, 0, 0, 1, 93, 89)"><g clip-path="url(#2015873077)"><g clip-path="url(#d6fbcfee9b)"><g clip-path="url(#fa0840d0b2)"><path fill="#ffffff" d="M 0.421875 0.722656 L 396.972656 0.722656 L 396.972656 397.277344 L 0.421875 397.277344 Z M 0.421875 0.722656 " fill-opacity="1" fill-rule="nonzero"/></g></g></g></g></g></g><path stroke-linecap="round" transform="matrix(0.568014, -0.489755, 0.489755, 0.568014, 77.594654, 463.471201)" fill="none" stroke-linejoin="miter" d="M 5.99957 6.00078 L 724.496704 6.002536 " stroke="#000000" stroke-width="12" stroke-opacity="1" stroke-miterlimit="4"/></svg>