<svg xmlns="http://www.w3.org/2000/svg" xmlns:xlink="http://www.w3.org/1999/xlink" zoomAndPan="magnify" viewBox="0 0 576 576" preserveAspectRatio="xMidYMid meet" version="1.0"><defs><clipPath id="dc5f2940b3"><path d="M 76.496094 76.496094 L 499.503906 76.496094 L 499.503906 499.503906 L 76.496094 499.503906 Z M 76.496094 76.496094 " clip-rule="nonzero"/></clipPath><clipPath id="0d7b1f3784"><path d="M 288 76.496094 C 171.1875 76.496094 76.496094 171.1875 76.496094 288 C 76.496094 404.8125 171.1875 499.503906 288 499.503906 C 404.8125 499.503906 499.503906 404.8125 499.503906 288 C 499.503906 171.1875 404.8125 76.496094 288 76.496094 Z M 288 76.496094 " clip-rule="nonzero"/></clipPath><clipPath id="fe758bb9e0"><path d="M 0.496094 0.496094 L 423.503906 0.496094 L 423.503906 423.503906 L 0.496094 423.503906 Z M 0.496094 0.496094 " clip-rule="nonzero"/></clipPath><clipPath id="c1bb7c6899"><path d="M 212 0.496094 C 95.1875 0.496094 0.496094 95.1875 0.496094 212 C 0.496094 328.8125 95.1875 423.503906 212 423.503906 C 328.8125 423.503906 423.503906 328.8125 423.503906 212 C 423.503906 95.1875 328.8125 0.496094 212 0.496094 Z M 212 0.496094 " clip-rule="nonzero"/></clipPath><clipPath id="83b2853fe0"><rect x="0" width="424" y="0" height="424"/></clipPath><clipPath id="322aa0a562"><path d="M 84.738281 85.089844 L 492 85.089844 L 492 490.910156 L 84.738281 490.910156 Z M 84.738281 85.089844 " clip-rule="nonzero"/></clipPath><clipPath id="b9a47b41c4"><path d="M 288 85.089844 C 175.742188 85.089844 84.738281 175.933594 84.738281 288 C 84.738281 400.066406 175.742188 490.910156 288 490.910156 C 400.257812 490.910156 491.261719 400.066406 491.261719 288 C 491.261719 175.933594 400.257812 85.089844 288 85.089844 Z M 288 85.089844 " clip-rule="nonzero"/></clipPath><clipPath id="b0becc6e4b"><path d="M 0.738281 0.0898438 L 407 0.0898438 L 407 405.910156 L 0.738281 405.910156 Z M 0.738281 0.0898438 " clip-rule="nonzero"/></clipPath><clipPath id="b5e3ad4b48"><path d="M 204 0.0898438 C 91.742188 0.0898438 0.738281 90.933594 0.738281 203 C 0.738281 315.066406 91.742188 405.910156 204 405.910156 C 316.257812 405.910156 407.261719 315.066406 407.261719 203 C 407.261719 90.933594 316.257812 0.0898438 204 0.0898438 Z M 204 0.0898438 " clip-rule="nonzero"/></clipPath><clipPath id="d085353e6e"><rect x="0" width="408" y="0" height="406"/></clipPath></defs><g clip-path="url(#dc5f2940b3)"><g clip-path="url(#0d7b1f3784)"><g transform="matrix(1, 0, 0, 1, 76, 76)"><g clip-path="url(#83b2853fe0)"><g clip-path="url(#fe758bb9e0)"><g clip-path="url(#c1bb7c6899)"><path fill="#000000" d="M 0.496094 0.496094 L 423.503906 0.496094 L 423.503906 423.503906 L 0.496094 423.503906 Z M 0.496094 0.496094 " fill-opacity="1" fill-rule="nonzero"/></g></g></g></g></g></g><g clip-path="url(#322aa0a562)"><g clip-path="url(#b9a47b41c4)"><g transform="matrix(1, 0, 0, 1, 84, 85)"><g clip-path="url(#d085353e6e)"><g clip-path="url(#b0becc6e4b)"><g clip-path="url(#b5e3ad4b48)"><path fill="#ffffff" d="M 0.738281 0.0898438 L 406.558594 0.0898438 L 406.558594 405.910156 L 0.738281 405.910156 Z M 0.738281 0.0898438 " fill-opacity="1" fill-rule="nonzero"/></g></g></g></g></g></g><path stroke-linecap="round" transform="matrix(0.568014, -0.489755, 0.489755, 0.568014, 77.594654, 463.471201)" fill="none" stroke-linejoin="miter" d="M 5.99957 6.00078 L 724.496704 6.002536 " stroke="#000000" stroke-width="12" stroke-opacity="1" stroke-miterlimit="4"/></svg>