<svg xmlns="http://www.w3.org/2000/svg" xmlns:xlink="http://www.w3.org/1999/xlink" zoomAndPan="magnify" viewBox="0 0 576 131.249995" preserveAspectRatio="xMidYMid meet" version="1.0"><defs><g/><clipPath id="5b529065c5"><rect x="0" width="239" y="0" height="76"/></clipPath><clipPath id="12d08e1ad8"><path d="M 282 15 L 343.546875 15 L 343.546875 107 L 282 107 Z M 282 15 " clip-rule="nonzero"/></clipPath><clipPath id="8d15307d14"><rect x="0" width="344" y="0" height="126"/></clipPath></defs><g transform="matrix(1, 0, 0, 1, 3, 27)"><g clip-path="url(#5b529065c5)"><g fill="#000000" fill-opacity="1"><g transform="translate(3.856545, 64.059365)"><g><path d="M 23.738281 -1.566406 L -2.570312 -14.722656 L -2.570312 -23.839844 L 27.679688 -38.964844 L 31.953125 -30.421875 L 31.953125 -25.738281 L 11.152344 -15.339844 L 9.179688 -19.28125 L 11.152344 -23.222656 L 31.953125 -12.824219 L 31.953125 -8.140625 L 27.679688 0.402344 Z M 27.679688 -9.449219 L 25.707031 -5.507812 L 21.765625 -7.480469 L 23.601562 -11.152344 L 27.542969 -9.179688 L 23.136719 -9.179688 L 23.136719 -10.097656 L 27.542969 -10.097656 L 25.574219 -6.15625 L -0.671875 -19.28125 L 25.574219 -32.40625 L 27.542969 -28.460938 L 23.136719 -28.460938 L 23.136719 -29.378906 L 27.542969 -29.378906 L 23.601562 -27.410156 L 21.765625 -31.082031 L 25.707031 -33.054688 L 27.679688 -29.113281 L 3.808594 -17.175781 L 1.835938 -21.117188 L 6.242188 -21.117188 L 6.242188 -17.445312 L 1.835938 -17.445312 L 3.808594 -21.386719 Z M 27.679688 -9.449219 "/></g></g></g><g fill="#000000" fill-opacity="1"><g transform="translate(42.931946, 64.059365)"><g><path d="M -4.40625 0 L -4.40625 -42.96875 L 9.917969 -42.96875 L 9.917969 -33.054688 L 5.507812 -33.054688 L 2.390625 -36.167969 L 9.191406 -42.96875 L 20.1875 -42.96875 L 31.953125 -31.207031 L 31.953125 4.40625 L 17.628906 4.40625 L 17.628906 -27.542969 L 22.035156 -27.542969 L 18.917969 -24.429688 L 13.410156 -29.9375 L 16.527344 -33.054688 L 16.527344 -28.644531 L 12.855469 -28.644531 L 12.855469 -33.054688 L 15.96875 -29.9375 L 8.625 -22.589844 L 5.507812 -25.707031 L 9.917969 -25.707031 L 9.917969 4.40625 L -4.40625 4.40625 Z M 4.40625 0 L 0 0 L 0 -4.40625 L 5.507812 -4.40625 L 5.507812 0 L 1.101562 0 L 1.101562 -27.535156 L 11.027344 -37.460938 L 18.351562 -37.460938 L 26.441406 -29.371094 L 26.441406 0 L 22.035156 0 L 22.035156 -4.40625 L 27.542969 -4.40625 L 27.542969 0 L 23.136719 0 L 23.136719 -29.378906 L 27.542969 -29.378906 L 24.429688 -26.265625 L 15.246094 -35.445312 L 18.363281 -38.5625 L 18.363281 -34.15625 L 11.019531 -34.15625 L 11.019531 -38.5625 L 14.132812 -35.445312 L 1.101562 -22.414062 L 1.101562 -38.5625 L 5.507812 -38.5625 L 5.507812 -34.15625 L 0 -34.15625 L 0 -38.5625 L 4.40625 -38.5625 Z M 4.40625 0 "/></g></g></g><g fill="#000000" fill-opacity="1"><g transform="translate(82.007347, 64.059365)"><g><path d="M 6.066406 3.117188 L -4.40625 -7.355469 L -4.40625 -42.96875 L 9.917969 -42.96875 L 9.917969 -11.019531 L 5.507812 -11.019531 L 8.625 -14.132812 L 14.132812 -8.625 L 11.019531 -5.507812 L 11.019531 -9.917969 L 14.691406 -9.917969 L 14.691406 -5.507812 L 11.574219 -8.625 L 18.917969 -15.96875 L 22.035156 -12.855469 L 17.628906 -12.855469 L 17.628906 -42.96875 L 31.953125 -42.96875 L 31.953125 4.40625 L 17.628906 4.40625 L 17.628906 -5.507812 L 22.035156 -5.507812 L 25.152344 -2.390625 L 18.351562 4.40625 L 7.355469 4.40625 Z M 12.296875 -3.117188 L 9.179688 0 L 9.179688 -4.40625 L 16.527344 -4.40625 L 16.527344 0 L 13.410156 -3.117188 L 26.441406 -16.148438 L 26.441406 0 L 22.035156 0 L 22.035156 -4.40625 L 27.542969 -4.40625 L 27.542969 0 L 23.136719 0 L 23.136719 -38.5625 L 27.542969 -38.5625 L 27.542969 -34.15625 L 22.035156 -34.15625 L 22.035156 -38.5625 L 26.441406 -38.5625 L 26.441406 -11.027344 L 16.515625 -1.101562 L 9.191406 -1.101562 L 1.101562 -9.191406 L 1.101562 -38.5625 L 5.507812 -38.5625 L 5.507812 -34.15625 L 0 -34.15625 L 0 -38.5625 L 4.40625 -38.5625 L 4.40625 -9.179688 L 0 -9.179688 L 3.117188 -12.296875 Z M 12.296875 -3.117188 "/></g></g></g><g fill="#000000" fill-opacity="1"><g transform="translate(121.082747, 64.059365)"><g><path d="M 1.101562 0 L 1.101562 -9.917969 L 11.019531 -9.917969 L 11.019531 -5.507812 L 6.609375 -5.507812 L 6.609375 -44.070312 L 11.019531 -44.070312 L 11.019531 -39.664062 L 1.101562 -39.664062 L 1.101562 -53.988281 L 20.933594 -53.988281 L 20.933594 -5.507812 L 16.527344 -5.507812 L 16.527344 -9.917969 L 26.441406 -9.917969 L 26.441406 4.40625 L 1.101562 4.40625 Z M 9.917969 0 L 5.507812 0 L 5.507812 -4.40625 L 22.035156 -4.40625 L 22.035156 0 L 17.628906 0 L 17.628906 -5.507812 L 22.035156 -5.507812 L 22.035156 -1.101562 L 12.121094 -1.101562 L 12.121094 -49.578125 L 16.527344 -49.578125 L 16.527344 -45.171875 L 5.507812 -45.171875 L 5.507812 -49.578125 L 9.917969 -49.578125 L 9.917969 -44.070312 L 5.507812 -44.070312 L 5.507812 -48.476562 L 15.425781 -48.476562 L 15.425781 -1.101562 L 5.507812 -1.101562 L 5.507812 -5.507812 L 9.917969 -5.507812 Z M 9.917969 0 "/></g></g></g><g fill="#000000" fill-opacity="1"><g transform="translate(160.158148, 64.059365)"><g><path d="M 1.101562 0 L 1.101562 -9.917969 L 11.019531 -9.917969 L 11.019531 -5.507812 L 6.609375 -5.507812 L 6.609375 -44.070312 L 11.019531 -44.070312 L 11.019531 -39.664062 L 1.101562 -39.664062 L 1.101562 -53.988281 L 20.933594 -53.988281 L 20.933594 -5.507812 L 16.527344 -5.507812 L 16.527344 -9.917969 L 26.441406 -9.917969 L 26.441406 4.40625 L 1.101562 4.40625 Z M 9.917969 0 L 5.507812 0 L 5.507812 -4.40625 L 22.035156 -4.40625 L 22.035156 0 L 17.628906 0 L 17.628906 -5.507812 L 22.035156 -5.507812 L 22.035156 -1.101562 L 12.121094 -1.101562 L 12.121094 -49.578125 L 16.527344 -49.578125 L 16.527344 -45.171875 L 5.507812 -45.171875 L 5.507812 -49.578125 L 9.917969 -49.578125 L 9.917969 -44.070312 L 5.507812 -44.070312 L 5.507812 -48.476562 L 15.425781 -48.476562 L 15.425781 -1.101562 L 5.507812 -1.101562 L 5.507812 -5.507812 L 9.917969 -5.507812 Z M 9.917969 0 "/></g></g></g><g fill="#000000" fill-opacity="1"><g transform="translate(199.233559, 64.059365)"><g><path d="M -2.105469 -3.539062 L -4.40625 -8.140625 L -4.40625 -12.824219 L 16.390625 -23.222656 L 18.363281 -19.28125 L 16.390625 -15.339844 L -4.40625 -25.738281 L -4.40625 -30.421875 L -0.132812 -38.964844 L 30.117188 -23.839844 L 30.117188 -14.722656 L -0.132812 0.402344 Z M 5.777344 -7.480469 L 1.835938 -5.507812 L -0.132812 -9.449219 L 23.738281 -21.386719 L 25.707031 -17.445312 L 21.300781 -17.445312 L 21.300781 -21.117188 L 25.707031 -21.117188 L 23.738281 -17.175781 L -0.132812 -29.113281 L 1.835938 -33.054688 L 5.777344 -31.082031 L 3.941406 -27.410156 L 0 -29.378906 L 4.40625 -29.378906 L 4.40625 -28.460938 L 0 -28.460938 L 1.972656 -32.40625 L 28.21875 -19.28125 L 1.972656 -6.15625 L 0 -10.097656 L 4.40625 -10.097656 L 4.40625 -9.179688 L 0 -9.179688 L 3.941406 -11.152344 Z M 5.777344 -7.480469 "/></g></g></g><g fill="#ffffff" fill-opacity="1"><g transform="translate(3.856545, 64.059365)"><g><path d="M 25.703125 -5.515625 L 1.84375 -17.4375 L 1.84375 -21.109375 L 25.703125 -33.046875 L 27.546875 -29.375 L 27.546875 -28.453125 L 9.1875 -19.28125 L 27.546875 -10.09375 L 27.546875 -9.1875 Z M 25.703125 -5.515625 "/></g></g></g><g fill="#ffffff" fill-opacity="1"><g transform="translate(42.931946, 64.059365)"><g><path d="M 0 0 L 0 -38.5625 L 5.515625 -38.5625 L 5.515625 -33.046875 L 11.015625 -38.5625 L 18.359375 -38.5625 L 27.546875 -29.375 L 27.546875 0 L 22.03125 0 L 22.03125 -27.546875 L 16.53125 -33.046875 L 12.859375 -33.046875 L 5.515625 -25.703125 L 5.515625 0 Z M 0 0 "/></g></g></g><g fill="#ffffff" fill-opacity="1"><g transform="translate(82.007347, 64.059365)"><g><path d="M 9.1875 0 L 0 -9.1875 L 0 -38.5625 L 5.515625 -38.5625 L 5.515625 -11.015625 L 11.015625 -5.515625 L 14.6875 -5.515625 L 22.03125 -12.859375 L 22.03125 -38.5625 L 27.546875 -38.5625 L 27.546875 0 L 22.03125 0 L 22.03125 -5.515625 L 16.53125 0 Z M 9.1875 0 "/></g></g></g><g fill="#ffffff" fill-opacity="1"><g transform="translate(121.082747, 64.059365)"><g><path d="M 5.515625 0 L 5.515625 -5.515625 L 11.015625 -5.515625 L 11.015625 -44.0625 L 5.515625 -44.0625 L 5.515625 -49.578125 L 16.53125 -49.578125 L 16.53125 -5.515625 L 22.03125 -5.515625 L 22.03125 0 Z M 5.515625 0 "/></g></g></g><g fill="#ffffff" fill-opacity="1"><g transform="translate(160.158148, 64.059365)"><g><path d="M 5.515625 0 L 5.515625 -5.515625 L 11.015625 -5.515625 L 11.015625 -44.0625 L 5.515625 -44.0625 L 5.515625 -49.578125 L 16.53125 -49.578125 L 16.53125 -5.515625 L 22.03125 -5.515625 L 22.03125 0 Z M 5.515625 0 "/></g></g></g><g fill="#ffffff" fill-opacity="1"><g transform="translate(199.233559, 64.059365)"><g><path d="M 1.84375 -5.515625 L 0 -9.1875 L 0 -10.09375 L 18.359375 -19.28125 L 0 -28.453125 L 0 -29.375 L 1.84375 -33.046875 L 25.703125 -21.109375 L 25.703125 -17.4375 Z M 1.84375 -5.515625 "/></g></g></g></g></g><g transform="matrix(1, 0, 0, 1, 227, 2)"><g clip-path="url(#8d15307d14)"><g fill="#000000" fill-opacity="1"><g transform="translate(0.402728, 101.564595)"><g><path d="M 53.476562 -38.355469 L 8.179688 -38.355469 L 51.441406 -81.335938 L 54.527344 -78.230469 L 54.527344 -73.851562 L 15.0625 -73.851562 L 15.0625 -78.230469 L 19.441406 -78.230469 L 19.441406 4.378906 L 7.179688 4.378906 L 7.179688 -86.113281 L 73.671875 -86.113281 L 30.410156 -43.132812 L 27.320312 -46.238281 L 27.320312 -50.617188 L 57.855469 -50.617188 L 57.855469 -38.355469 Z M 53.476562 -47.113281 L 53.476562 -42.734375 L 49.097656 -42.734375 L 49.097656 -46.238281 L 53.476562 -46.238281 L 53.476562 -41.859375 L 16.703125 -41.859375 L 59.964844 -84.839844 L 63.050781 -81.734375 L 63.050781 -77.355469 L 11.558594 -77.355469 L 11.558594 -81.734375 L 15.9375 -81.734375 L 15.9375 0 L 11.558594 0 L 11.558594 -4.378906 L 15.0625 -4.378906 L 15.0625 0 L 10.683594 0 L 10.683594 -82.609375 L 65.148438 -82.609375 L 21.882812 -39.628906 L 18.796875 -42.734375 L 18.796875 -47.113281 Z M 53.476562 -47.113281 "/></g></g></g><g fill="#000000" fill-opacity="1"><g transform="translate(64.621683, 101.564595)"><g><path d="M 20.667969 -7.882812 L 52.894531 -7.882812 L 52.894531 -3.503906 L 48.777344 -2.003906 L 33.386719 -44.238281 L 43.132812 -49.804688 C 45.136719 -50.910156 46.605469 -52.285156 47.542969 -53.921875 C 48.5 -55.605469 48.980469 -57.675781 48.980469 -60.132812 C 48.980469 -62.449219 48.566406 -64.429688 47.734375 -66.070312 C 46.9375 -67.636719 45.714844 -68.964844 44.066406 -70.046875 C 40.203125 -72.582031 34.117188 -73.851562 25.804688 -73.851562 L 15.0625 -73.851562 L 15.0625 -78.230469 L 19.441406 -78.230469 L 19.441406 4.378906 L 7.179688 4.378906 L 7.179688 -86.113281 L 25.804688 -86.113281 C 37.023438 -86.113281 45.625 -83.945312 51.609375 -79.617188 C 58.03125 -74.96875 61.242188 -68.472656 61.242188 -60.132812 C 61.242188 -55.464844 60.230469 -51.363281 58.210938 -47.832031 C 56.175781 -44.265625 53.167969 -41.371094 49.191406 -39.148438 L 45.222656 -36.925781 L 43.085938 -40.75 L 47.199219 -42.246094 L 64.167969 4.378906 L 16.289062 4.378906 L 16.289062 -7.882812 Z M 20.667969 0.875 L 20.667969 -3.503906 L 25.046875 -3.503906 L 25.046875 0 L 20.667969 0 L 20.667969 -4.378906 L 57.914062 -4.378906 L 57.914062 0 L 53.800781 1.496094 L 37.695312 -42.753906 L 44.917969 -46.789062 C 47.480469 -48.222656 49.375 -50.019531 50.609375 -52.175781 C 51.859375 -54.363281 52.484375 -57.015625 52.484375 -60.132812 C 52.484375 -65.492188 50.480469 -69.621094 46.472656 -72.523438 C 42.023438 -75.746094 35.132812 -77.355469 25.804688 -77.355469 L 11.558594 -77.355469 L 11.558594 -81.734375 L 15.9375 -81.734375 L 15.9375 0 L 11.558594 0 L 11.558594 -4.378906 L 15.0625 -4.378906 L 15.0625 0 L 10.683594 0 L 10.683594 -82.609375 L 25.804688 -82.609375 C 35.863281 -82.609375 43.550781 -80.859375 48.875 -77.367188 C 51.820312 -75.429688 54.042969 -72.988281 55.542969 -70.03125 C 57.007812 -67.148438 57.738281 -63.847656 57.738281 -60.132812 C 57.738281 -56.128906 56.875 -52.613281 55.148438 -49.585938 C 53.398438 -46.515625 50.839844 -44.054688 47.476562 -42.203125 L 40.9375 -38.464844 L 38.765625 -42.269531 L 42.878906 -43.765625 L 59.148438 0.875 Z M 20.667969 0.875 "/></g></g></g><g fill="#000000" fill-opacity="1"><g transform="translate(128.840638, 101.564595)"><g><path d="M 13.660156 -7.882812 L 56.628906 -7.882812 L 56.628906 -3.503906 L 52.515625 -2.007812 L 27.761719 -70.078125 L 31.875 -71.574219 L 35.992188 -70.078125 L 8.90625 4.378906 L -4.148438 4.378906 L 31.875 -94.660156 L 67.902344 4.378906 L 9.28125 4.378906 L 9.28125 -7.882812 Z M 13.660156 0.875 L 13.660156 -3.503906 L 18.039062 -3.503906 L 18.039062 0 L 13.660156 0 L 13.660156 -4.378906 L 61.648438 -4.378906 L 61.648438 0 L 57.535156 1.496094 L 27.761719 -80.351562 L 31.875 -81.851562 L 35.992188 -80.351562 L 6.214844 1.496094 L 2.101562 0 L 2.101562 -4.378906 L 5.839844 -4.378906 L 5.839844 0 L 1.722656 -1.496094 L 31.875 -84.386719 L 62.878906 0.875 Z M 13.660156 0.875 "/></g></g></g><g fill="#000000" fill-opacity="1"><g transform="translate(192.592543, 101.564595)"><g><path d="M 21.601562 -7.882812 L 67.605469 -7.882812 L 67.605469 -3.503906 L 63.226562 -3.503906 L 63.226562 -73.441406 L 67.605469 -73.441406 L 71.574219 -71.589844 L 41.328125 -6.804688 L 11.09375 -71.710938 L 15.0625 -73.558594 L 19.441406 -73.558594 L 19.441406 4.527344 L 7.179688 4.117188 L 7.179688 -86.230469 L 17.851562 -86.230469 L 45.300781 -27.304688 L 41.332031 -25.453125 L 37.367188 -27.304688 L 64.773438 -86.019531 L 75.488281 -86.378906 L 75.488281 4.390625 L 17.222656 4.25 L 17.222656 -7.882812 Z M 21.601562 0.875 L 21.601562 -3.503906 L 25.980469 -3.503906 L 25.980469 -0.117188 L 21.601562 -0.117188 L 21.609375 -4.496094 L 71.117188 -4.378906 L 71.109375 0 L 66.730469 0 L 66.730469 -81.851562 L 71.109375 -81.851562 L 71.253906 -77.472656 L 67.75 -77.355469 L 67.605469 -81.734375 L 71.574219 -79.882812 L 41.328125 -15.09375 L 11.09375 -80 L 15.0625 -81.851562 L 15.0625 -77.472656 L 11.558594 -77.472656 L 11.558594 -81.851562 L 15.9375 -81.851562 L 15.9375 -0.117188 L 11.558594 -0.117188 L 11.707031 -4.492188 L 15.207031 -4.375 L 15.0625 0 L 10.683594 0 L 10.683594 -73.558594 L 19.03125 -75.410156 L 45.300781 -19.011719 L 41.332031 -17.164062 L 37.367188 -19.015625 L 63.636719 -75.296875 L 71.984375 -73.441406 L 71.984375 0.875 Z M 21.601562 0.875 "/></g></g></g><g clip-path="url(#12d08e1ad8)"><g fill="#000000" fill-opacity="1"><g transform="translate(275.259861, 101.564595)"><g><path d="M 53.476562 -38.355469 L 8.179688 -38.355469 L 51.441406 -81.335938 L 54.527344 -78.230469 L 54.527344 -73.851562 L 15.0625 -73.851562 L 15.0625 -78.230469 L 19.441406 -78.230469 L 19.441406 -3.503906 L 15.0625 -3.503906 L 15.0625 -7.882812 L 64.746094 -7.882812 L 64.746094 4.378906 L 7.179688 4.378906 L 7.179688 -86.113281 L 73.671875 -86.113281 L 30.410156 -43.132812 L 27.320312 -46.238281 L 27.320312 -50.617188 L 57.855469 -50.617188 L 57.855469 -38.355469 Z M 53.476562 -47.113281 L 53.476562 -42.734375 L 49.097656 -42.734375 L 49.097656 -46.238281 L 53.476562 -46.238281 L 53.476562 -41.859375 L 16.703125 -41.859375 L 59.964844 -84.839844 L 63.050781 -81.734375 L 63.050781 -77.355469 L 11.558594 -77.355469 L 11.558594 -81.734375 L 15.9375 -81.734375 L 15.9375 0 L 11.558594 0 L 11.558594 -4.378906 L 60.367188 -4.378906 L 60.367188 0 L 55.988281 0 L 55.988281 -3.503906 L 60.367188 -3.503906 L 60.367188 0.875 L 10.683594 0.875 L 10.683594 -82.609375 L 65.148438 -82.609375 L 21.882812 -39.628906 L 18.796875 -42.734375 L 18.796875 -47.113281 Z M 53.476562 -47.113281 "/></g></g></g></g><g fill="#ffffff" fill-opacity="1"><g transform="translate(0.402728, 101.564595)"><g><path d="M 53.484375 -42.734375 L 18.796875 -42.734375 L 54.53125 -78.234375 L 15.0625 -78.234375 L 15.0625 0 L 11.5625 0 L 11.5625 -81.734375 L 63.046875 -81.734375 L 27.328125 -46.234375 L 53.484375 -46.234375 Z M 53.484375 -42.734375 "/></g></g></g><g fill="#ffffff" fill-opacity="1"><g transform="translate(64.621683, 101.564595)"><g><path d="M 20.671875 -3.5 L 52.890625 -3.5 L 38.765625 -42.265625 L 45.3125 -46 C 50.675781 -48.957031 53.359375 -53.671875 53.359375 -60.140625 C 53.359375 -72.203125 44.175781 -78.234375 25.8125 -78.234375 L 15.0625 -78.234375 L 15.0625 0 L 11.5625 0 L 11.5625 -81.734375 L 25.8125 -81.734375 C 36.082031 -81.734375 43.820312 -79.84375 49.03125 -76.0625 C 54.25 -72.289062 56.859375 -66.984375 56.859375 -60.140625 C 56.859375 -52.347656 53.59375 -46.625 47.0625 -42.96875 L 43.09375 -40.75 L 57.921875 0 L 20.671875 0 Z M 20.671875 -3.5 "/></g></g></g><g fill="#ffffff" fill-opacity="1"><g transform="translate(128.840638, 101.564595)"><g><path d="M 13.65625 -3.5 L 56.625 -3.5 L 31.875 -71.578125 L 5.84375 0 L 2.109375 0 L 31.875 -81.859375 L 61.65625 0 L 13.65625 0 Z M 13.65625 -3.5 "/></g></g></g><g fill="#ffffff" fill-opacity="1"><g transform="translate(192.592543, 101.564595)"><g><path d="M 21.609375 -3.5 L 67.609375 -3.5 L 67.609375 -73.453125 L 41.328125 -17.171875 L 15.0625 -73.5625 L 15.0625 0 L 11.5625 -0.109375 L 11.5625 -81.859375 L 15.0625 -81.859375 L 41.328125 -25.453125 L 67.609375 -81.734375 L 71.109375 -81.859375 L 71.109375 0 L 21.609375 -0.109375 Z M 21.609375 -3.5 "/></g></g></g><g fill="#ffffff" fill-opacity="1"><g transform="translate(275.259861, 101.564595)"><g><path d="M 53.484375 -42.734375 L 18.796875 -42.734375 L 54.53125 -78.234375 L 15.0625 -78.234375 L 15.0625 -3.5 L 60.375 -3.5 L 60.375 0 L 11.5625 0 L 11.5625 -81.734375 L 63.046875 -81.734375 L 27.328125 -46.234375 L 53.484375 -46.234375 Z M 53.484375 -42.734375 "/></g></g></g></g></g></svg>